# xmcd
#
# Track frame offsets:
#	150
#	25475
#	46665
#	66600
#	87728
#	105118
#	127063
#	144423
#	162163
#	175705
#	198223
#	217848
#
# Disc length: 3163 seconds
#
# Revision: 9
# Processed by: cddbd v1.5.2PL0 Copyright (c) Steve Scherf et al.
# Submitted via: EasyCDDAExtractor 15.3.0.1
#
DISCID=a20c590c
DTITLE=Ricky Martin - A Medio Vivir
DYEAR=1995
DGENRE=Latin
TTITLE0=Fuego De Noche, Nieve De Dia
TTITLE1=A Medio Vivir
TTITLE2=Maria
TTITLE3=Te Extraño, Te Olvido, Te Amo
TTITLE4=Donde Estaras
TTITLE5=Volveras
TTITLE6=Revolucion
TTITLE7=Somos La Semilla
TTITLE8=Como Decirte Adios
TTITLE9=Bombom De Azucar
TTITLE10=Corazon
TTITLE11=Nada Es Imposible
EXTD=YEAR: 1995
EXTT0=
EXTT1=
EXTT2=
EXTT3=
EXTT4=
EXTT5=
EXTT6=
EXTT7=
EXTT8=
EXTT9=
EXTT10=
EXTT11=
PLAYORDER=
